<svg width="229px" height="182px"
 viewBox="0.00 0.00 229.00 182.00" xmlns="http://www.w3.org/2000/svg" xmlns:xlink="http://www.w3.org/1999/xlink">
<g id="graph0" class="graph" transform="scale(1.0 1.0) rotate(0) translate(36 146)">
<polygon fill="white" stroke="transparent" points="-36,36 -36,-146 193,-146 193,36 -36,36"/>
<!-- People -->
<g id="node1" class="node">
<title>People</title>
<polygon fill="#caff70" stroke="transparent" points="0.5,-88 0.5,-110 157.5,-110 157.5,-88 0.5,-88"/>
<polygon fill="none" stroke="black" points="0.5,-88 0.5,-110 157.5,-110 157.5,-88 0.5,-88"/>
<text text-anchor="start" x="59.95" y="-95.4" font-family="Times,serif" font-weight="bold" font-size="14.00">People</text>
<polygon fill="none" stroke="black" points="0.5,-66 0.5,-88 157.5,-88 157.5,-66 0.5,-66"/>
<text text-anchor="start" x="42.26" y="-73.4" font-family="Times,serif" font-weight="bold" font-size="14.00">name: </text>
<text text-anchor="start" x="79.97" y="-73.4" font-family="Times,serif" font-weight="bold" font-style="italic" font-size="14.00">TEXT</text>
<polygon fill="none" stroke="black" points="0.5,-44 0.5,-66 157.5,-66 157.5,-44 0.5,-44"/>
<text text-anchor="start" x="44.6" y="-51.4" font-family="Times,serif" font-size="14.00">craft: </text>
<text text-anchor="start" x="77.63" y="-51.4" font-family="Times,serif" font-style="italic" font-size="14.00">TEXT</text>
<polygon fill="#c1cdcd" stroke="transparent" points="0.5,-22 0.5,-44 157.5,-44 157.5,-22 0.5,-22"/>
<polygon fill="none" stroke="black" points="0.5,-22 0.5,-44 157.5,-44 157.5,-22 0.5,-22"/>
<text text-anchor="start" x="58.79" y="-29.4" font-family="Times,serif" font-style="italic" font-size="14.00">Indices</text>
<polygon fill="none" stroke="black" points="0.5,0 0.5,-22 157.5,-22 157.5,0 0.5,0"/>
<text text-anchor="start" x="3.18" y="-6.4" font-family="Times,serif" font-size="14.00">sqlite_autoindex_People_1</text>
</g>
</g>
</svg>
